# xmcd
#
# Track frame offsets:
#	150
#	16468
#	38071
#	50075
#	71847
#	97909
#	109341
#	125940
#	147732
#	159736
#	181522
#	206986
#
# Disc length: 2911 seconds
#
# Revision: 1
# Processed by: cddbd v1.5.2PL0 Copyright (c) Steve Scherf et al.
# Submitted via: audiograbber 1.83.01
#
DISCID=b90b5d0c
DTITLE=Various Artist - Chartbuster Sampler disc 06
DYEAR=2008
DGENRE=Karaoke
TTITLE0=Bob Seger and The Silver Bullet Band - Old Time Rock And Roll
TTITLE1=Bette Midler - Wind Beneath My Wings
TTITLE2=The Everly Brothers - Bye, Bye Love
TTITLE3=Sheryl Crow - All I Want To Do
TTITLE4=David Allan Coe - You Never Even Called Me By My Name
TTITLE5=Dolly Parton - 9 To 5
TTITLE6=Bob Seger and The Silver Bullet Band - Old Time Rock And Roll (Vocal)
TTITLE7=Bette Midler - Wind Beneath My Wings (Vocal)
TTITLE8=The Everly Brothers - Bye, Bye Love (Vocal)
TTITLE9=Sheryl Crow - All I Want To Do (Vocal)
TTITLE10=David Allan Coe - You Never Even Called Me By My Name (Vocal)
TTITLE11=Dolly Parton - 9 To 5 (Vocal)
EXTD=
EXTT0=
EXTT1=
EXTT2=
EXTT3=
EXTT4=
EXTT5=
EXTT6=
EXTT7=
EXTT8=
EXTT9=
EXTT10=
EXTT11=
PLAYORDER=
